Coordinates
version=1
nRows=16
nColumns=38
inDegrees=no

Units are S.I. units (second, meters, Newtons, ...)
If the header above contains a line with 'inDegrees', this indicates whether rotational values are in degrees (yes) or radians (no).

endheader
time	pelvis_tilt	pelvis_list	pelvis_rotation	pelvis_tx	pelvis_ty	pelvis_tz	hip_flexion_r	hip_adduction_r	hip_rotation_r	knee_angle_r	ankle_angle_r	subtalar_angle_r	mtp_angle_r	hip_flexion_l	hip_adduction_l	hip_rotation_l	knee_angle_l	ankle_angle_l	subtalar_angle_l	mtp_angle_l	lumbar_extension	lumbar_bending	lumbar_rotation	arm_flex_r	arm_add_r	arm_rot_r	elbow_flex_r	pro_sup_r	wrist_flex_r	wrist_dev_r	arm_flex_l	arm_add_l	arm_rot_l	elbow_flex_l	pro_sup_l	wrist_flex_l	wrist_dev_l
3.38	-0.152648	0.0442727	0.0502113	0.946551	0.983322	-0.536062	0.59565	-0.0836808	-0.0862536	0.0942076	0.0861505	-0.0455474	-0.031554	-0.107958	0.0831488	-0.0182699	0.117855	0.250614	0.0863047	-0.0226747	-0.0897536	-0.00376791	-0.0268265	-0.37949	-0.0307751	-0.291601	0.60608	1.30093	0.000420814	0.0022927	0.0427145	-0.11604	-0.0153059	1.24412	1.33861	0.00321411	0.00163884
3.385	-0.152359	0.0427344	0.0519145	0.953104	0.98253	-0.535765	0.596805	-0.0825906	-0.0860159	0.100421	0.0792596	-0.0466248	-0.031554	-0.111101	0.0797578	-0.0231543	0.125286	0.251892	0.0912497	-0.0226747	-0.0894561	-0.000904233	-0.027442	-0.379735	-0.030121	-0.291443	0.605733	1.3023	0.000420814	0.0022927	0.0444047	-0.115732	-0.0155683	1.24106	1.33886	0.00321411	0.00163884
3.39	-0.151735	0.0410777	0.0538266	0.959737	0.981811	-0.535471	0.597713	-0.0816635	-0.0863891	0.108712	0.0730731	-0.0476585	-0.031554	-0.114456	0.0760968	-0.0281154	0.133121	0.252451	0.0960745	-0.0226747	-0.089403	0.00212319	-0.0283084	-0.379691	-0.0297499	-0.29117	0.605335	1.30383	0.000420814	0.0022927	0.0455991	-0.115388	-0.0162219	1.23778	1.33939	0.00321411	0.00163884
3.395	-0.150779	0.0393052	0.0559331	0.966452	0.981167	-0.535178	0.598358	-0.080891	-0.0873645	0.119019	0.0675856	-0.0486504	-0.031554	-0.118018	0.0721653	-0.033151	0.141365	0.25229	0.100769	-0.0226747	-0.0895942	0.00531206	-0.0294165	-0.379359	-0.0296577	-0.290784	0.604888	1.30548	0.000420814	0.0022927	0.0463017	-0.115011	-0.0172557	1.23427	1.34018	0.00321411	0.00163884
3.4	-0.149513	0.0374223	0.058199	0.973246	0.980596	-0.534883	0.598709	-0.0802466	-0.088914	0.131172	0.0627744	-0.0496021	-0.031554	-0.121766	0.0679639	-0.0382631	0.150027	0.251399	0.105311	-0.0226747	-0.0900167	0.0086533	-0.0307347	-0.378747	-0.0298335	-0.290294	0.604402	1.30724	0.000420814	0.0022927	0.0465199	-0.114609	-0.0186405	1.23052	1.34118	0.00321411	0.00163884
3.405	-0.14798	0.0354368	0.0605604	0.980118	0.980096	-0.534578	0.598731	-0.079677	-0.0909827	0.144882	0.0585908	-0.0505103	-0.031554	-0.12565	0.0634955	-0.0434706	0.159123	0.249767	0.109665	-0.0226747	-0.0906359	0.0121294	-0.0321979	-0.377864	-0.0302588	-0.289718	0.603887	1.30907	0.000420814	0.0022927	0.046263	-0.114198	-0.0203306	1.22654	1.34235	0.00321411	0.00163884
3.41	-0.146228	0.0333573	0.0629365	0.987067	0.979664	-0.534255	0.5984	-0.0791022	-0.0934847	0.159766	0.054959	-0.0513696	-0.031554	-0.129597	0.0587657	-0.0488106	0.168675	0.247378	0.113786	-0.0226747	-0.0913966	0.0157144	-0.0337066	-0.376729	-0.0309104	-0.289076	0.603356	1.31094	0.000420814	0.0022927	0.0455416	-0.113793	-0.0222644	1.2223	1.34367	0.00321411	0.00163884
3.415	-0.144299	0.0311898	0.0652286	0.994096	0.979295	-0.5339	0.597711	-0.078424	-0.0963096	0.1754	0.0517838	-0.0521744	-0.031554	-0.133514	0.0537826	-0.0543335	0.178714	0.244213	0.117611	-0.0226747	-0.0922311	0.0193768	-0.0351379	-0.375359	-0.0317621	-0.288388	0.602822	1.31279	0.000420814	0.0022927	0.044367	-0.113412	-0.0243706	1.21777	1.34507	0.00321411	0.00163884
3.42	-0.142241	0.0289353	0.0673227	1.00121	0.978993	-0.533501	0.596675	-0.0775411	-0.0993366	0.191373	0.0489637	-0.0529199	-0.031554	-0.137302	0.0485547	-0.0600936	0.189283	0.240251	0.121076	-0.0226747	-0.0930721	0.023082	-0.0363649	-0.373774	-0.0327876	-0.287674	0.602297	1.31461	0.000420814	0.0022927	0.0427514	-0.113071	-0.026576	1.2129	1.34653	0.00321411	0.00163884
3.425	-0.140099	0.0265917	0.0691096	1.0084	0.978763	-0.533042	0.595314	-0.0763673	-0.10245	0.207334	0.0464062	-0.0536072	-0.031554	-0.140861	0.0430917	-0.0661312	0.200438	0.235476	0.124114	-0.0226747	-0.0938617	0.0267933	-0.0372782	-0.371991	-0.0339618	-0.286953	0.601791	1.31636	0.000420814	0.0022927	0.0407082	-0.11278	-0.0288083	1.20766	1.34804	0.00321411	0.00163884
3.43	-0.137912	0.0241635	0.0705129	1.01566	0.978613	-0.532511	0.593655	-0.0748471	-0.105557	0.223013	0.0440454	-0.0542437	-0.031554	-0.144095	0.0374049	-0.0724581	0.212251	0.229878	0.126654	-0.0226747	-0.0945586	0.0304712	-0.0378038	-0.370024	-0.0352615	-0.286239	0.601316	1.31804	0.000420814	0.0022927	0.0382516	-0.112549	-0.0310007	1.20199	1.34958	0.00321411	0.00163884
3.435	-0.135707	0.021664	0.0715003	1.02299	0.978548	-0.531904	0.591717	-0.0729656	-0.108591	0.238229	0.0418531	-0.0548392	-0.031554	-0.146915	0.0315096	-0.0790517	0.22482	0.223464	0.128634	-0.0226747	-0.095141	0.0340712	-0.0379117	-0.367886	-0.0366649	-0.285544	0.600885	1.31964	0.000420814	0.0022927	0.0353972	-0.112383	-0.0330958	1.19584	1.35115	0.00321411	0.00163884
3.44	-0.133501	0.0191186	0.0720796	1.03038	0.978569	-0.531217	0.589506	-0.0707484	-0.111519	0.25287	0.0398404	-0.055405	-0.031554	-0.149237	0.0254266	-0.0858542	0.238264	0.216255	0.13	-0.0226747	-0.0956044	0.0375417	-0.0376127	-0.365588	-0.038152	-0.28488	0.600511	1.32115	0.000420814	0.0022927	0.0321619	-0.112281	-0.0350466	1.18917	1.35274	0.00321411	0.00163884
3.445	-0.131303	0.0165663	0.07229	1.03783	0.978674	-0.530451	0.587012	-0.0682536	-0.114322	0.266879	0.0380512	-0.0559513	-0.031554	-0.150975	0.0191824	-0.0927833	0.252731	0.20829	0.130706	-0.0226747	-0.0959562	0.040823	-0.0369458	-0.363141	-0.0397048	-0.28425	0.600209	1.32256	0.000420814	0.0022927	0.0285645	-0.112241	-0.0368175	1.18195	1.35433	0.00321411	0.00163884
3.45	-0.129119	0.0140549	0.0721859	1.04533	0.978859	-0.529611	0.584221	-0.0655563	-0.116987	0.280237	0.0365523	-0.0564856	-0.031554	-0.152041	0.012806	-0.0997509	0.26839	0.199626	0.130723	-0.0226747	-0.096209	0.0438513	-0.0359598	-0.36056	-0.041307	-0.283662	0.599994	1.3239	0.000420814	0.0022927	0.0246259	-0.112254	-0.0383864	1.17416	1.35593	0.00321411	0.00163884
3.455	-0.126956	0.0116343	0.0718221	1.05287	0.979115	-0.5287	0.581119	-0.0627318	-0.119488	0.292949	0.0354229	-0.0570139	-0.031554	-0.152337	0.00632218	-0.106679	0.285435	0.190331	0.130041	-0.0226747	-0.0963731	0.0465645	-0.0346969	-0.357861	-0.042946	-0.283115	0.599879	1.32514	0.000420814	0.0022927	0.02037	-0.112306	-0.0397417	1.16578	1.35753	0.00321411	0.00163884
